<svg xmlns="http://www.w3.org/2000/svg" width="375" viewBox="0 0 375 375" height="375" version="1.0"><defs><clipPath id="a"><path d="M 178 217 L 196.9375 217 L 196.9375 224.46875 L 178 224.46875 Z M 178 217"/></clipPath><clipPath id="b"><path d="M 136.746094 90.21875 L 186 90.21875 L 186 172 L 136.746094 172 Z M 136.746094 90.21875"/></clipPath><clipPath id="c"><path d="M 189 90.21875 L 237.789062 90.21875 L 237.789062 171.609375 L 189 171.609375 Z M 189 90.21875"/></clipPath></defs><path fill="#F1465F" d="M 201.535156 196.675781 C 201.535156 198.558594 200.007812 200.089844 198.125 200.089844 L 176.652344 200.089844 C 174.769531 200.089844 173.242188 198.558594 173.242188 196.675781 C 173.242188 194.789062 174.769531 193.257812 176.652344 193.257812 L 198.125 193.257812 C 200.007812 193.257812 201.535156 194.789062 201.535156 196.675781"/><path fill="#F1465F" d="M 201.535156 204.992188 C 201.535156 206.882812 200.007812 208.410156 198.125 208.410156 L 176.652344 208.410156 C 174.769531 208.410156 173.242188 206.882812 173.242188 204.992188 C 173.242188 203.113281 174.769531 201.582031 176.652344 201.582031 L 198.125 201.582031 C 200.007812 201.582031 201.535156 203.113281 201.535156 204.992188"/><path fill="#F1465F" d="M 199.597656 212.847656 C 199.597656 214.472656 198.285156 215.792969 196.65625 215.792969 L 178.121094 215.792969 C 176.496094 215.792969 175.175781 214.472656 175.175781 212.847656 C 175.175781 211.222656 176.496094 209.902344 178.121094 209.902344 L 196.65625 209.902344 C 198.285156 209.902344 199.597656 211.222656 199.597656 212.847656"/><g clip-path="url(#a)"><path fill="#F1465F" d="M 178.023438 217.285156 C 178.023438 221.265625 182.214844 224.492188 187.390625 224.492188 C 192.5625 224.492188 196.757812 221.265625 196.757812 217.285156 L 178.023438 217.285156"/></g><g clip-path="url(#b)"><path fill="#F1465F" d="M 159.90625 168.058594 C 154.269531 168.058594 149.617188 163.78125 149.019531 158.292969 C 150.28125 158.652344 151.609375 158.859375 152.984375 158.859375 C 154.398438 158.859375 155.761719 158.648438 157.050781 158.269531 C 157.839844 162.121094 160.164062 165.417969 163.347656 167.5 C 162.261719 167.859375 161.109375 168.058594 159.90625 168.058594 Z M 142.035156 144.375 C 142.035156 142.191406 142.683594 140.15625 143.789062 138.445312 C 146.015625 139.847656 148.640625 140.671875 151.457031 140.671875 C 152.625 140.671875 153.757812 140.515625 154.84375 140.253906 C 154.453125 141.394531 154.195312 142.59375 154.097656 143.839844 C 150.273438 145.527344 147.304688 148.816406 146.066406 152.863281 C 143.609375 150.855469 142.035156 147.792969 142.035156 144.375 Z M 158.253906 134.769531 C 156.382812 136.25 154.027344 137.148438 151.457031 137.148438 C 149.550781 137.148438 147.757812 136.652344 146.191406 135.792969 C 148.0625 134.304688 150.417969 133.414062 152.984375 133.414062 C 154.890625 133.414062 156.6875 133.90625 158.253906 134.769531 Z M 145.835938 116.796875 C 146.941406 121.480469 150.324219 125.28125 154.742188 126.980469 C 155.125 128.160156 155.660156 129.265625 156.3125 130.292969 C 155.242188 130.039062 154.132812 129.890625 152.984375 129.890625 C 149.300781 129.890625 145.941406 131.285156 143.382812 133.566406 C 141.605469 131.613281 140.507812 129.03125 140.507812 126.1875 C 140.507812 122.203125 142.648438 118.71875 145.835938 116.796875 Z M 156.878906 102.933594 C 156.808594 103.515625 156.757812 104.101562 156.757812 104.703125 C 156.757812 107.332031 157.472656 109.789062 158.699219 111.917969 C 158.304688 112.285156 157.925781 112.667969 157.574219 113.074219 C 155.710938 112.203125 153.648438 111.699219 151.457031 111.699219 C 150.644531 111.699219 149.851562 111.785156 149.074219 111.917969 C 149.683594 107.613281 152.789062 104.117188 156.878906 102.933594 Z M 171.226562 93.738281 C 177.269531 93.738281 182.179688 98.660156 182.179688 104.703125 L 182.179688 117.820312 C 180.785156 113.773438 177.648438 110.542969 173.667969 109.015625 C 171.980469 103.789062 167.398438 99.863281 161.820312 99.117188 C 163.734375 95.90625 167.230469 93.738281 171.226562 93.738281 Z M 171.226562 166.324219 C 171.167969 166.324219 171.113281 166.320312 171.058594 166.316406 C 172.902344 164.085938 174.078125 161.289062 174.316406 158.234375 C 177.988281 156.613281 180.859375 153.511719 182.179688 149.6875 L 182.179688 155.363281 C 182.179688 161.40625 177.269531 166.324219 171.226562 166.324219 Z M 159.90625 146.136719 C 161.222656 146.136719 162.480469 146.382812 163.652344 146.8125 C 163.160156 148.980469 162.023438 150.902344 160.453125 152.371094 C 158.960938 150.746094 157.953125 148.671875 157.660156 146.371094 C 158.386719 146.214844 159.136719 146.136719 159.90625 146.136719 Z M 161.0625 136.992188 C 162.585938 138.667969 163.609375 140.804688 163.867188 143.179688 C 162.605469 142.820312 161.28125 142.613281 159.90625 142.613281 C 159.179688 142.613281 158.476562 142.683594 157.777344 142.785156 C 158.203125 140.710938 159.214844 138.851562 160.628906 137.378906 C 160.777344 137.257812 160.917969 137.121094 161.0625 136.992188 Z M 174.40625 131.757812 C 172.601562 130.949219 170.609375 130.488281 168.507812 130.488281 C 167.34375 130.488281 166.210938 130.640625 165.125 130.90625 C 165.589844 129.554688 165.863281 128.121094 165.90625 126.628906 C 170.894531 124.335938 174.375 119.304688 174.375 113.460938 C 174.375 113.402344 174.363281 113.34375 174.363281 113.285156 C 177.421875 115.230469 179.460938 118.644531 179.460938 122.53125 C 179.460938 126.40625 177.441406 129.804688 174.40625 131.757812 Z M 177.648438 133.753906 C 179.710938 132.066406 181.289062 129.820312 182.179688 127.246094 L 182.179688 140.257812 C 181.289062 137.6875 179.710938 135.4375 177.648438 133.753906 Z M 170.753906 155.703125 C 170.03125 155.855469 169.28125 155.9375 168.507812 155.9375 C 166.601562 155.9375 164.808594 155.441406 163.242188 154.578125 C 164.882812 152.929688 166.121094 150.890625 166.824219 148.609375 C 168.941406 150.34375 170.390625 152.855469 170.753906 155.703125 Z M 174.109375 154.375 C 173.332031 150.308594 170.847656 146.847656 167.4375 144.753906 C 167.441406 144.628906 167.457031 144.5 167.457031 144.375 C 167.457031 141.519531 166.617188 138.863281 165.1875 136.617188 C 166.253906 136.871094 167.363281 137.019531 168.507812 137.019531 C 170.609375 137.019531 172.601562 136.558594 174.40625 135.75 C 177.441406 137.699219 179.460938 141.101562 179.460938 144.972656 C 179.460938 148.96875 177.308594 152.460938 174.109375 154.375 Z M 168.507812 111.574219 C 169.261719 111.574219 170 111.648438 170.714844 111.792969 C 170.796875 112.339844 170.855469 112.890625 170.855469 113.460938 C 170.855469 114.207031 170.777344 114.933594 170.636719 115.636719 C 167.972656 115.492188 165.566406 114.398438 163.742188 112.679688 C 165.1875 111.976562 166.800781 111.574219 168.507812 111.574219 Z M 160.277344 104.703125 C 160.277344 103.957031 160.355469 103.234375 160.496094 102.53125 C 164.335938 102.734375 167.65625 104.925781 169.441406 108.097656 C 169.132812 108.074219 168.824219 108.050781 168.507812 108.050781 C 165.992188 108.050781 163.625 108.699219 161.558594 109.835938 C 160.742188 108.304688 160.277344 106.554688 160.277344 104.703125 Z M 160.820312 114.742188 C 163.035156 117.042969 165.996094 118.605469 169.308594 119.046875 C 168.382812 120.609375 167.082031 121.917969 165.527344 122.855469 C 164.78125 119.707031 163.023438 116.953125 160.601562 114.96875 C 160.675781 114.894531 160.742188 114.816406 160.820312 114.742188 Z M 154.050781 122.710938 C 151.53125 121.109375 149.710938 118.511719 149.144531 115.472656 C 149.894531 115.3125 150.667969 115.222656 151.457031 115.222656 C 152.921875 115.222656 154.316406 115.515625 155.59375 116.039062 C 154.609375 117.996094 154.042969 120.199219 154.042969 122.53125 C 154.042969 122.59375 154.046875 122.652344 154.050781 122.710938 Z M 157.5625 122.53125 C 157.5625 120.871094 157.941406 119.304688 158.601562 117.894531 C 160.445312 119.488281 161.753906 121.683594 162.214844 124.175781 C 161.472656 124.335938 160.699219 124.425781 159.90625 124.425781 C 159.148438 124.425781 158.414062 124.351562 157.703125 124.203125 C 157.613281 123.65625 157.5625 123.101562 157.5625 122.53125 Z M 158.972656 127.902344 C 159.285156 127.921875 159.589844 127.945312 159.90625 127.945312 C 160.71875 127.945312 161.507812 127.863281 162.285156 127.734375 C 162.132812 128.824219 161.816406 129.859375 161.367188 130.824219 C 160.414062 129.996094 159.597656 129.011719 158.972656 127.902344 Z M 154.304688 147.695312 C 154.78125 150.203125 155.910156 152.480469 157.503906 154.351562 C 156.125 154.976562 154.597656 155.335938 152.984375 155.335938 C 151.664062 155.335938 150.40625 155.089844 149.234375 154.664062 C 149.910156 151.703125 151.777344 149.210938 154.304688 147.695312 Z M 160.410156 156.96875 C 162.722656 158.539062 165.511719 159.460938 168.507812 159.460938 C 169.234375 159.460938 169.9375 159.390625 170.632812 159.285156 C 170.136719 161.742188 168.8125 163.898438 166.964844 165.460938 C 163.515625 163.996094 160.972656 160.800781 160.410156 156.96875 Z M 171.226562 169.847656 C 179.207031 169.847656 185.699219 163.347656 185.699219 155.363281 L 185.699219 104.703125 C 185.699219 96.71875 179.207031 90.21875 171.226562 90.21875 C 165.21875 90.21875 160.054688 93.902344 157.871094 99.136719 C 150.996094 100.109375 145.667969 105.925781 145.453125 113.023438 C 140.46875 115.3125 136.988281 120.347656 136.988281 126.1875 C 136.988281 130.078125 138.535156 133.609375 141.039062 136.214844 C 139.449219 138.539062 138.515625 141.347656 138.515625 144.375 C 138.515625 149.597656 141.300781 154.171875 145.453125 156.722656 C 145.445312 156.847656 145.433594 156.972656 145.433594 157.101562 C 145.433594 165.085938 151.925781 171.582031 159.90625 171.582031 C 162.722656 171.582031 165.34375 170.761719 167.570312 169.359375 C 168.742188 169.667969 169.964844 169.847656 171.226562 169.847656"/></g><g clip-path="url(#c)"><path fill="#F1465F" d="M 228.710938 152.863281 C 227.472656 148.816406 224.507812 145.523438 220.679688 143.835938 C 220.582031 142.589844 220.324219 141.394531 219.929688 140.253906 C 221.019531 140.515625 222.152344 140.671875 223.320312 140.671875 C 226.140625 140.671875 228.761719 139.847656 230.992188 138.445312 C 232.097656 140.15625 232.746094 142.191406 232.746094 144.375 C 232.746094 147.792969 231.167969 150.855469 228.710938 152.863281 Z M 214.875 168.058594 C 213.671875 168.058594 212.515625 167.859375 211.429688 167.5 C 214.617188 165.417969 216.941406 162.121094 217.726562 158.269531 C 219.019531 158.648438 220.378906 158.859375 221.792969 158.859375 C 223.167969 158.859375 224.496094 158.652344 225.757812 158.292969 C 225.160156 163.78125 220.507812 168.058594 214.875 168.058594 Z M 192.597656 155.363281 L 192.597656 149.691406 C 193.921875 153.515625 196.789062 156.613281 200.460938 158.234375 C 200.699219 161.289062 201.875 164.085938 203.722656 166.316406 C 203.664062 166.320312 203.609375 166.324219 203.550781 166.324219 C 197.511719 166.324219 192.597656 161.40625 192.597656 155.363281 Z M 203.550781 93.738281 C 207.550781 93.738281 211.046875 95.90625 212.957031 99.117188 C 207.378906 99.863281 202.796875 103.789062 201.105469 109.015625 C 197.128906 110.542969 193.996094 113.773438 192.597656 117.816406 L 192.597656 104.703125 C 192.597656 98.660156 197.511719 93.738281 203.550781 93.738281 Z M 225.703125 111.917969 C 224.925781 111.785156 224.128906 111.699219 223.320312 111.699219 C 221.132812 111.699219 219.0625 112.203125 217.203125 113.074219 C 216.851562 112.671875 216.472656 112.285156 216.078125 111.917969 C 217.308594 109.789062 218.019531 107.332031 218.019531 104.703125 C 218.019531 104.101562 217.972656 103.515625 217.902344 102.933594 C 221.988281 104.113281 225.089844 107.613281 225.703125 111.917969 Z M 228.585938 135.792969 C 227.019531 136.652344 225.226562 137.148438 223.320312 137.148438 C 220.753906 137.148438 218.394531 136.25 216.523438 134.769531 C 218.089844 133.90625 219.882812 133.414062 221.792969 133.414062 C 224.359375 133.414062 226.714844 134.304688 228.585938 135.792969 Z M 234.269531 126.1875 C 234.269531 129.03125 233.175781 131.613281 231.394531 133.566406 C 228.835938 131.285156 225.476562 129.890625 221.792969 129.890625 C 220.648438 129.890625 219.535156 130.039062 218.464844 130.292969 C 219.121094 129.265625 219.652344 128.160156 220.03125 126.980469 C 224.453125 125.285156 227.832031 121.480469 228.941406 116.796875 C 232.128906 118.71875 234.269531 122.203125 234.269531 126.1875 Z M 214.875 142.613281 C 213.5 142.613281 212.171875 142.820312 210.90625 143.179688 C 211.167969 140.804688 212.191406 138.667969 213.71875 136.992188 C 213.863281 137.121094 214 137.257812 214.148438 137.378906 C 215.5625 138.851562 216.574219 140.710938 216.996094 142.785156 C 216.304688 142.683594 215.597656 142.613281 214.875 142.613281 Z M 214.324219 152.371094 C 212.753906 150.902344 211.617188 148.980469 211.121094 146.8125 C 212.296875 146.382812 213.558594 146.136719 214.875 146.136719 C 215.644531 146.136719 216.394531 146.214844 217.117188 146.367188 C 216.824219 148.667969 215.816406 150.746094 214.324219 152.371094 Z M 207.957031 148.609375 C 208.652344 150.890625 209.898438 152.929688 211.53125 154.578125 C 209.96875 155.441406 208.175781 155.9375 206.269531 155.9375 C 205.5 155.9375 204.746094 155.855469 204.023438 155.703125 C 204.386719 152.855469 205.839844 150.34375 207.957031 148.609375 Z M 197.128906 133.753906 C 195.066406 135.4375 193.488281 137.6875 192.597656 140.253906 L 192.597656 127.253906 C 193.488281 129.820312 195.066406 132.066406 197.128906 133.753906 Z M 208.871094 126.628906 C 208.914062 128.121094 209.183594 129.554688 209.652344 130.90625 C 208.566406 130.640625 207.4375 130.488281 206.269531 130.488281 C 204.167969 130.488281 202.175781 130.949219 200.371094 131.757812 C 197.332031 129.804688 195.316406 126.40625 195.316406 122.53125 C 195.316406 118.644531 197.351562 115.230469 200.414062 113.285156 C 200.414062 113.34375 200.402344 113.402344 200.402344 113.460938 C 200.402344 119.304688 203.886719 124.335938 208.871094 126.628906 Z M 206.269531 111.574219 C 207.976562 111.574219 209.59375 111.980469 211.035156 112.683594 C 209.214844 114.398438 206.804688 115.492188 204.140625 115.636719 C 204 114.933594 203.921875 114.207031 203.921875 113.460938 C 203.921875 112.890625 203.980469 112.339844 204.0625 111.792969 C 204.777344 111.648438 205.511719 111.574219 206.269531 111.574219 Z M 213.410156 130.824219 C 212.957031 129.859375 212.644531 128.824219 212.488281 127.734375 C 213.269531 127.863281 214.0625 127.945312 214.875 127.945312 C 215.191406 127.945312 215.496094 127.921875 215.800781 127.902344 C 215.179688 129.011719 214.367188 129.996094 213.410156 130.824219 Z M 219.183594 116.039062 C 220.460938 115.515625 221.855469 115.222656 223.320312 115.222656 C 224.113281 115.222656 224.882812 115.3125 225.632812 115.472656 C 225.0625 118.515625 223.246094 121.109375 220.726562 122.710938 C 220.726562 122.652344 220.738281 122.59375 220.738281 122.53125 C 220.738281 120.199219 220.167969 117.996094 219.183594 116.039062 Z M 217.21875 122.53125 C 217.21875 123.101562 217.160156 123.65625 217.078125 124.203125 C 216.363281 124.351562 215.628906 124.425781 214.875 124.425781 C 214.078125 124.425781 213.308594 124.335938 212.558594 124.175781 C 213.023438 121.683594 214.332031 119.488281 216.175781 117.894531 C 216.835938 119.304688 217.21875 120.871094 217.21875 122.53125 Z M 214.171875 114.96875 C 211.753906 116.953125 209.996094 119.707031 209.25 122.851562 C 207.695312 121.917969 206.398438 120.609375 205.46875 119.046875 C 208.785156 118.605469 211.746094 117.042969 213.957031 114.742188 C 214.03125 114.816406 214.101562 114.894531 214.171875 114.96875 Z M 214.5 104.703125 C 214.5 106.554688 214.035156 108.304688 213.21875 109.839844 C 211.152344 108.699219 208.785156 108.050781 206.269531 108.050781 C 205.949219 108.050781 205.644531 108.074219 205.335938 108.097656 C 207.121094 104.925781 210.441406 102.738281 214.28125 102.53125 C 214.421875 103.234375 214.5 103.957031 214.5 104.703125 Z M 195.316406 144.972656 C 195.316406 141.101562 197.332031 137.699219 200.371094 135.75 C 202.175781 136.558594 204.167969 137.019531 206.269531 137.019531 C 207.414062 137.019531 208.519531 136.871094 209.59375 136.617188 C 208.160156 138.863281 207.320312 141.519531 207.320312 144.375 C 207.320312 144.5 207.335938 144.628906 207.339844 144.753906 C 203.929688 146.847656 201.445312 150.308594 200.667969 154.375 C 197.46875 152.460938 195.316406 148.96875 195.316406 144.972656 Z M 207.8125 165.460938 C 205.96875 163.898438 204.640625 161.742188 204.144531 159.285156 C 204.835938 159.390625 205.542969 159.460938 206.269531 159.460938 C 209.269531 159.460938 212.054688 158.539062 214.367188 156.96875 C 213.804688 160.800781 211.265625 163.996094 207.8125 165.460938 Z M 225.542969 154.664062 C 224.371094 155.089844 223.109375 155.335938 221.792969 155.335938 C 220.179688 155.335938 218.65625 154.976562 217.273438 154.351562 C 218.871094 152.480469 219.992188 150.203125 220.46875 147.695312 C 223 149.207031 224.867188 151.703125 225.542969 154.664062 Z M 237.789062 126.1875 C 237.789062 120.347656 234.308594 115.3125 229.320312 113.023438 C 229.109375 105.925781 223.78125 100.109375 216.90625 99.136719 C 214.722656 93.902344 209.558594 90.21875 203.550781 90.21875 C 195.574219 90.21875 189.078125 96.71875 189.078125 104.703125 L 189.078125 155.363281 C 189.078125 163.347656 195.574219 169.847656 203.550781 169.847656 C 204.816406 169.847656 206.039062 169.667969 207.207031 169.359375 C 209.433594 170.761719 212.058594 171.582031 214.875 171.582031 C 222.855469 171.582031 229.34375 165.085938 229.34375 157.101562 C 229.34375 156.972656 229.328125 156.847656 229.324219 156.722656 C 233.480469 154.171875 236.261719 149.597656 236.261719 144.375 C 236.261719 141.347656 235.328125 138.539062 233.738281 136.214844 C 236.242188 133.609375 237.789062 130.078125 237.789062 126.1875"/></g><path fill="#F1465F" d="M 176.691406 186.496094 C 176.550781 185.882812 176.4375 185.207031 176.136719 184.582031 C 175.671875 183.277344 174.910156 181.976562 173.984375 180.820312 C 173.054688 179.671875 171.960938 178.671875 170.84375 177.894531 C 169.71875 177.117188 168.59375 176.527344 167.585938 176.148438 C 165.578125 175.34375 164.113281 175.316406 164.113281 175.316406 C 164.113281 175.316406 165.296875 176.132812 166.890625 177.382812 C 167.683594 178.011719 168.578125 178.761719 169.480469 179.59375 C 170.359375 180.445312 171.292969 181.347656 172.058594 182.375 C 172.476562 182.863281 172.867188 183.367188 173.191406 183.910156 C 173.550781 184.425781 173.871094 184.957031 174.152344 185.488281 C 174.71875 186.542969 175.21875 187.589844 175.527344 188.53125 C 175.902344 189.46875 176.121094 190.292969 176.289062 190.878906 C 176.46875 191.46875 176.59375 191.816406 176.59375 191.816406 C 176.59375 191.816406 176.675781 191.472656 176.78125 190.855469 C 176.890625 190.234375 177.027344 189.335938 176.921875 188.246094 C 176.910156 187.699219 176.859375 187.105469 176.691406 186.496094"/><path fill="#F1465F" d="M 203.9375 177.894531 C 202.816406 178.671875 201.722656 179.671875 200.789062 180.820312 C 199.867188 181.976562 199.109375 183.277344 198.640625 184.582031 C 198.339844 185.207031 198.226562 185.882812 198.085938 186.496094 C 197.917969 187.105469 197.867188 187.699219 197.855469 188.246094 C 197.746094 189.335938 197.886719 190.234375 197.996094 190.855469 C 198.101562 191.472656 198.183594 191.816406 198.183594 191.816406 C 198.183594 191.816406 198.308594 191.46875 198.488281 190.878906 C 198.65625 190.292969 198.878906 189.46875 199.25 188.53125 C 199.558594 187.589844 200.054688 186.542969 200.625 185.488281 C 200.90625 184.957031 201.226562 184.425781 201.585938 183.910156 C 201.910156 183.367188 202.300781 182.863281 202.71875 182.375 C 203.484375 181.347656 204.417969 180.445312 205.296875 179.59375 C 206.199219 178.761719 207.09375 178.011719 207.886719 177.382812 C 209.484375 176.132812 210.664062 175.316406 210.664062 175.316406 C 210.664062 175.316406 209.199219 175.34375 207.191406 176.148438 C 206.183594 176.527344 205.054688 177.117188 203.9375 177.894531"/><path fill="#F1465F" d="M 192.128906 177.625 L 192.128906 175.046875 C 192.128906 174.523438 192.242188 174.117188 192.464844 173.878906 C 192.652344 173.675781 192.894531 173.632812 193.058594 173.632812 C 193.535156 173.632812 194.242188 174.011719 194.242188 175.046875 C 194.242188 176.34375 193.375 177.144531 192.128906 177.625 Z M 182.648438 177.625 C 181.398438 177.144531 180.535156 176.34375 180.535156 175.046875 C 180.535156 174.011719 181.242188 173.632812 181.71875 173.632812 C 181.882812 173.632812 182.121094 173.675781 182.3125 173.878906 C 182.53125 174.117188 182.648438 174.523438 182.648438 175.046875 Z M 193.058594 171.15625 C 192.128906 171.15625 191.273438 171.523438 190.65625 172.191406 C 190.195312 172.679688 189.652344 173.578125 189.652344 175.046875 L 189.652344 178.183594 C 188.152344 178.347656 186.625 178.347656 185.125 178.183594 L 185.125 175.046875 C 185.125 173.578125 184.582031 172.679688 184.125 172.191406 C 183.5 171.523438 182.648438 171.15625 181.71875 171.15625 C 179.921875 171.15625 178.058594 172.609375 178.058594 175.046875 C 178.058594 176.667969 178.757812 179.132812 182.648438 180.222656 L 182.648438 191.125 L 185.125 191.125 L 185.125 180.671875 C 186.496094 180.804688 188.277344 180.808594 189.652344 180.671875 L 189.652344 191.125 L 192.128906 191.125 L 192.128906 180.222656 C 196.019531 179.132812 196.71875 176.667969 196.71875 175.046875 C 196.71875 172.609375 194.855469 171.15625 193.058594 171.15625"/></svg>